<svg width="24" height="24" viewBox="0 0 24 24" fill="none" xmlns="http://www.w3.org/2000/svg">
<path fill-rule="evenodd" clip-rule="evenodd" d="M15.5 6C15.5 7.933 13.933 9.5 12 9.5C10.067 9.5 8.49998 7.933 8.49998 6C8.49998 4.067 10.067 2.5 12 2.5C13.933 2.5 15.5 4.067 15.5 6ZM17 6C17 8.76142 14.7614 11 12 11C9.23856 11 6.99998 8.76142 6.99998 6C6.99998 3.23858 9.23856 1 12 1C14.7614 1 17 3.23858 17 6ZM2.02864 21.2431C1.99699 21.6603 2.33917 22 2.75759 22C3.17601 22 3.51169 21.6601 3.54899 21.2433C3.72557 19.2704 4.58847 17.4122 6.00034 16.0004C7.59154 14.4092 9.74968 13.5152 12 13.5152C14.2503 13.5152 16.4084 14.4092 17.9996 16.0004C19.4115 17.4122 20.2744 19.2704 20.451 21.2433C20.4883 21.6601 20.8239 22 21.2424 22C21.6608 22 22.003 21.6603 21.9713 21.2431C21.7911 18.8678 20.7672 16.6251 19.071 14.9289C17.1957 13.0536 14.6521 12 12 12C9.34782 12 6.80428 13.0536 4.92891 14.9289C3.23277 16.6251 2.20886 18.8678 2.02864 21.2431Z" fill="#5A5A5F"/>
</svg>
