<svg width="24" height="24" viewBox="0 0 24 24" fill="none" xmlns="http://www.w3.org/2000/svg">
<path d="M23.8641 6.48525C23.795 6.38442 23.7033 6.30212 23.5967 6.24529C23.4902 6.18846 23.3718 6.15875 23.2518 6.15867H7.25438L6.04344 1.87074C5.56856 0.182276 4.44014 0 3.97732 0H0.748522C0.334676 0 0 0.34404 0 0.768576C0 1.19311 0.335053 1.53713 0.748499 1.53713H3.97692C4.07905 1.53713 4.39074 1.53713 4.60333 2.29138L8.76907 18.0116C8.85952 18.3432 9.15387 18.5723 9.48965 18.5723H19.6649C19.9807 18.5723 20.2626 18.3691 20.3693 18.0638L23.9558 7.18726C24.0383 6.95158 24.004 6.68919 23.8642 6.48525H23.8641ZM19.1381 17.0356H10.0578L7.6751 7.69621H22.1875L19.1381 17.0356ZM17.6536 20.13C16.6126 20.13 15.7691 20.9961 15.7691 22.065C15.7691 23.1339 16.6126 24 17.6536 24C18.6945 24 19.538 23.1339 19.538 22.065C19.538 20.9961 18.6945 20.13 17.6536 20.13ZM10.8696 20.13C9.82864 20.13 8.98517 20.9961 8.98517 22.065C8.98517 23.1339 9.82864 24 10.8696 24C11.9106 24 12.754 23.1339 12.754 22.065C12.754 20.9961 11.9106 20.13 10.8696 20.13Z" fill="#5A5A5F"/>
</svg>
